<svg width="26" height="12" viewBox="0 0 26 12" fill="none" xmlns="http://www.w3.org/2000/svg">
<path d="M7.5791 7.36328C7.5791 7.98763 7.46973 8.53451 7.25098 9.00391C7.03678 9.46875 6.74056 9.85612 6.3623 10.166C5.98861 10.4759 5.54883 10.7083 5.04297 10.8633C4.54167 11.0182 4.00163 11.0957 3.42285 11.0957C3.19954 11.0957 2.95345 11.0661 2.68457 11.0068C2.42025 10.9476 2.15137 10.8747 1.87793 10.7881C1.60449 10.6969 1.34017 10.6012 1.08496 10.501C0.83431 10.3962 0.611003 10.2982 0.415039 10.207L0.71582 7.39062C1.10319 7.62305 1.53158 7.80078 2.00098 7.92383C2.47493 8.04232 2.93978 8.10156 3.39551 8.10156C3.4821 8.10156 3.58691 8.09928 3.70996 8.09473C3.83301 8.08561 3.94922 8.0651 4.05859 8.0332C4.17253 7.99674 4.26823 7.94434 4.3457 7.87598C4.42318 7.80762 4.46191 7.70964 4.46191 7.58203C4.46191 7.49544 4.43457 7.42253 4.37988 7.36328C4.3252 7.29948 4.25456 7.24935 4.16797 7.21289C4.08138 7.17188 3.9834 7.14225 3.87402 7.12402C3.76465 7.10124 3.65755 7.08529 3.55273 7.07617C3.44792 7.06706 3.34993 7.0625 3.25879 7.0625C3.16764 7.0625 3.09473 7.0625 3.04004 7.0625C2.64811 7.0625 2.29036 6.99414 1.9668 6.85742C1.64779 6.7207 1.37207 6.53158 1.13965 6.29004C0.911784 6.04395 0.734049 5.75456 0.606445 5.42188C0.478841 5.08464 0.415039 4.72005 0.415039 4.32812C0.415039 3.79036 0.522135 3.30957 0.736328 2.88574C0.955078 2.45736 1.24447 2.09505 1.60449 1.79883C1.96908 1.49805 2.38607 1.2679 2.85547 1.1084C3.32487 0.948893 3.81022 0.869141 4.31152 0.869141C4.53483 0.869141 4.76497 0.878255 5.00195 0.896484C5.23893 0.910156 5.47363 0.9375 5.70605 0.978516C5.94303 1.01953 6.17318 1.07194 6.39648 1.13574C6.61979 1.19954 6.83171 1.2793 7.03223 1.375L6.77246 4.15039C6.46257 4.04557 6.13672 3.95898 5.79492 3.89062C5.45768 3.81771 5.12728 3.78125 4.80371 3.78125C4.74447 3.78125 4.66699 3.78353 4.57129 3.78809C4.48014 3.78809 4.38216 3.79492 4.27734 3.80859C4.17708 3.81771 4.07454 3.83366 3.96973 3.85645C3.86491 3.87923 3.77148 3.91113 3.68945 3.95215C3.60742 3.98861 3.54134 4.03874 3.49121 4.10254C3.44108 4.16634 3.41829 4.24154 3.42285 4.32812C3.42741 4.42839 3.46387 4.51042 3.53223 4.57422C3.60514 4.63346 3.69629 4.68132 3.80566 4.71777C3.9196 4.74967 4.04264 4.77246 4.1748 4.78613C4.31152 4.7998 4.44596 4.80892 4.57812 4.81348C4.71029 4.81348 4.83333 4.81348 4.94727 4.81348C5.0612 4.80892 5.15462 4.8112 5.22754 4.82031C5.59212 4.8431 5.92025 4.92057 6.21191 5.05273C6.50358 5.1849 6.74967 5.36035 6.9502 5.5791C7.15527 5.79785 7.31022 6.0599 7.41504 6.36523C7.52441 6.66602 7.5791 6.9987 7.5791 7.36328ZM18.585 1.0332L17.9561 11.0684L14.8389 11.2051L14.8662 5.91406L13.458 10.1797H12.2549L11.1748 6.36523L11.1611 10.7949L8.00293 10.8906L8.13965 1.44336L11.6533 1.30664L13.0479 5.83203L14.9072 1.0332H18.585ZM25.5098 5.36719C25.5098 5.63607 25.5098 5.90267 25.5098 6.16699C25.5098 6.43132 25.4961 6.69792 25.4688 6.9668C25.4186 7.53646 25.2956 8.0765 25.0996 8.58691C24.9036 9.09277 24.637 9.53711 24.2998 9.91992C23.9671 10.3027 23.5615 10.6058 23.083 10.8291C22.6045 11.0524 22.0553 11.1641 21.4355 11.1641C21.194 11.1641 20.9411 11.1436 20.6768 11.1025C20.417 11.0615 20.1572 11 19.8975 10.918C19.6423 10.8359 19.3962 10.7357 19.1592 10.6172C18.9268 10.4941 18.7194 10.3529 18.5371 10.1934L18.9609 7.36328C19.2298 7.62305 19.5283 7.83496 19.8564 7.99902C20.1846 8.15853 20.5423 8.23828 20.9297 8.23828C21.1803 8.23828 21.3923 8.20182 21.5654 8.12891C21.7386 8.05599 21.8822 7.95573 21.9961 7.82812C22.11 7.70052 22.1989 7.55241 22.2627 7.38379C22.3311 7.21061 22.3789 7.02832 22.4062 6.83691C22.4382 6.64095 22.4564 6.44043 22.4609 6.23535C22.4701 6.03027 22.4746 5.82747 22.4746 5.62695C22.4746 4.90234 22.4382 4.18229 22.3652 3.4668C22.2923 2.74674 22.2285 2.02669 22.1738 1.30664L25.3047 1.10156C25.4414 2.52344 25.5098 3.94531 25.5098 5.36719Z" fill="white"/>
</svg>
